<svg width="27" height="25" viewBox="0 0 27 25" fill="none" xmlns="http://www.w3.org/2000/svg">
<path d="M18.9 25L16.2 25L9.45 14.4737L2.025 14.4737C1.48794 14.4737 0.972871 14.2657 0.593109 13.8956C0.213348 13.5255 5.69273e-07 13.0235 5.46392e-07 12.5C5.23511e-07 11.9765 0.213348 11.4745 0.593109 11.1044C0.97287 10.7343 1.48794 10.5263 2.025 10.5263L9.45 10.5263L16.2 -7.08125e-07L18.9 -8.26145e-07L15.525 10.5263L22.95 10.5263L24.975 7.89474L27 7.89474L25.65 12.5L27 17.1053L24.975 17.1053L22.95 14.4737L15.525 14.4737L18.9 25Z" fill="black"/>
</svg>
