<svg width="27" height="25" viewBox="0 0 27 25" fill="none" xmlns="http://www.w3.org/2000/svg">
<path d="M8.1 25L10.8 25L17.55 14.4737L24.975 14.4737C25.5121 14.4737 26.0271 14.2657 26.4069 13.8956C26.7867 13.5255 27 13.0235 27 12.5C27 11.9765 26.7867 11.4745 26.4069 11.1044C26.0271 10.7343 25.5121 10.5263 24.975 10.5263L17.55 10.5263L10.8 -7.08124e-07L8.1 -8.26145e-07L11.475 10.5263L4.05 10.5263L2.025 7.89474L1.56226e-06 7.89474L1.35 12.5L1.15965e-06 17.1053L2.025 17.1053L4.05 14.4737L11.475 14.4737L8.1 25Z" fill="black"/>
</svg>
