<svg width="40" height="26" viewBox="0 0 40 26" fill="none" xmlns="http://www.w3.org/2000/svg">
<path d="M31.104 0.912443C32.1102 0.44658 33.1859 0.151112 34.2877 0.0379606C37.2754 -0.241625 39.473 1.07709 39.9776 2.22339C40.4066 3.18951 34.6025 6.18108 28.2598 9.16333L21.8939 22.9966C21.4248 24.0202 20.4926 25.0733 19.8198 25.3762L18.5173 25.9587C18.1392 26.1264 17.846 25.8018 18.1315 24.6477L20.3507 12.756C19.5111 13.1334 18.5404 13.5854 17.795 13.921C9.0248 17.8569 4.00309 18.3757 3.03702 16.2011L0.0955955 9.55165C-0.459972 8.29351 1.55242 7.90675 2.36416 8.53271C2.87806 8.93345 4.55711 10.1201 5.69139 10.9589L5.69177 10.9592C6.34283 11.4468 6.82581 11.8085 7.52477 11.4932L31.104 0.912443Z" fill="black"/>
<path d="M9.40289 1.83508C9.73932 1.68441 10.2301 1.63005 10.8011 1.63937C11.3885 1.64128 11.973 1.72434 12.5388 1.88323L19.9155 4.1634L14.0805 6.7853L8.82418 3.58093C7.7794 3.02176 7.72384 2.58685 8.1004 2.41599L9.40289 1.83508Z" fill="black"/>
</svg>
