<svg width="42" height="42" viewBox="0 0 42 42" fill="none" xmlns="http://www.w3.org/2000/svg">
<path d="M38.6396 30.0873C38.6396 32.2526 36.8682 34.0239 34.7029 34.0239H7.29699C5.13488 34.0239 3.36035 32.2526 3.36035 30.0873V13.8442C3.36035 11.6789 5.13488 9.90759 7.29699 9.90759H34.7029C36.8682 9.90759 38.6396 11.6789 38.6396 13.8442V30.0873Z" fill="white"/>
<path d="M25.9904 16.4067H16.0127C15.055 16.4067 14.2766 15.6284 14.2766 14.6706V6.48023C14.2766 5.5225 15.055 4.74414 16.0127 4.74414H25.9904C26.9482 4.74414 27.7265 5.5225 27.7265 6.48023V14.6674C27.7265 15.6284 26.9482 16.4067 25.9904 16.4067V16.4067ZM17.7488 12.9345H24.2511V8.21633H17.7488V12.9345V12.9345Z" fill="white"/>
<path d="M8.6167 9.90442H11.5027V34.0207H8.6167V9.90442ZM30.5005 9.90442H33.3897V34.0207H30.5005V9.90442Z" fill="#450783"/>
</svg>
