<svg width="41" height="36" viewBox="0 0 41 36" fill="none" xmlns="http://www.w3.org/2000/svg">
<path fill-rule="evenodd" clip-rule="evenodd" d="M13.0561 7.72303C8.75282 8.7035 0.66694 5.65128 0.66694 15.7818C0.66694 28.1712 -1.3154 35.5 8.38199 35.5H7.83118C16.0934 35.5 24.3557 35.5 32.618 35.5C42.3156 35.5 40.333 28.1709 40.333 15.7818C40.333 5.67272 32.1565 8.68267 27.9438 7.72303C27.9438 0.0446318 27.3415 0.505287 18.2964 0.505287C12.7226 0.505287 13.0555 2.86532 13.0555 7.72303H13.0561ZM3.14893 15.7818C3.14893 32.2869 1.68881 32.9896 10.5817 32.9896V10.5066C5.01448 10.5066 3.14893 10.1326 3.14893 15.7818ZM15.5465 5.78773V8.00497H25.5952C25.2223 2.16226 26.4334 3.01565 18.297 3.01565C15.7341 3.01565 15.5468 3.20432 15.5468 5.78803L15.5465 5.78773ZM30.4186 32.9896C36.9941 32.9896 37.9199 32.6854 37.8667 25.7819C37.8324 21.351 38.2709 15.3764 37.206 11.6172C34.885 10.3719 33.7124 10.5066 30.4186 10.5066V32.9896ZM13.0636 32.9896H27.7988L27.9369 10.5066H13.0642L13.0636 32.9896V32.9896Z" fill="white"/>
</svg>
