<svg width="25" height="27" viewBox="0 0 25 27" fill="none" xmlns="http://www.w3.org/2000/svg">
<path d="M0.22938 17.4715L2.3168 19.7256C2.4633 19.8837 2.66197 19.9726 2.86912 19.9726C3.07627 19.9726 3.27494 19.8837 3.42144 19.7256C3.63853 19.4898 3.89675 19.3029 4.18117 19.1757C4.46559 19.0484 4.77056 18.9834 5.07841 18.9843C6.37094 18.9843 7.42207 20.1196 7.42207 21.5156C7.42283 21.8482 7.36253 22.1776 7.24466 22.4849C7.12679 22.7921 6.95369 23.0711 6.73538 23.3056C6.58892 23.4638 6.50665 23.6784 6.50665 23.9022C6.50665 24.1259 6.58892 24.3405 6.73538 24.4987L8.8228 26.7528C8.97553 26.9177 9.17513 27 9.37512 27C9.57511 27 9.7751 26.9177 9.92744 26.7528L24.7706 10.7214C24.8433 10.6432 24.901 10.5502 24.9404 10.4479C24.9797 10.3455 25 10.2357 25 10.1249C25 10.014 24.9797 9.90429 24.9404 9.80192C24.901 9.69955 24.8433 9.60659 24.7706 9.52835L22.6832 7.27426C22.5367 7.11608 22.338 7.02722 22.1309 7.02722C21.9237 7.02722 21.7251 7.11608 21.5786 7.27426C21.3615 7.51002 21.1032 7.69693 20.8188 7.82416C20.5344 7.9514 20.2294 8.01643 19.9216 8.0155C18.6291 8.0155 17.5779 6.88023 17.5779 5.48423C17.5779 4.80796 17.8221 4.17261 18.2646 3.6942C18.4111 3.53598 18.4934 3.3214 18.4934 3.09767C18.4934 2.87393 18.4111 2.65936 18.2646 2.50113L16.1772 0.24704C16.0307 0.0888605 15.832 0 15.6249 0C15.4177 0 15.2191 0.0888605 15.0726 0.24704L0.22938 16.2784C0.156675 16.3566 0.0989873 16.4496 0.0596248 16.552C0.0202624 16.6543 0 16.7641 0 16.8749C0 16.9858 0.0202624 17.0955 0.0596248 17.1979C0.0989873 17.3003 0.156675 17.3932 0.22938 17.4715ZM10.1563 7.94293L10.7758 8.61203C10.9282 8.77699 11.1282 8.85925 11.3282 8.85925C11.5282 8.85925 11.7282 8.77699 11.8805 8.61203C12.0269 8.45381 12.1092 8.23923 12.1092 8.0155C12.1092 7.79176 12.0269 7.57719 11.8805 7.41896L11.261 6.74987L15.6249 2.03665L16.6623 3.15673C16.2386 3.84655 16.0136 4.65643 16.0155 5.48423C16.0155 7.81047 17.7678 9.70301 19.9216 9.70301C20.6879 9.70531 21.4376 9.46235 22.0762 9.0048L23.1133 10.1249L18.7498 14.8381L18.1303 14.169C18.0582 14.0884 17.972 14.0241 17.8767 13.9799C17.7814 13.9357 17.6788 13.9124 17.5751 13.9115C17.4714 13.9105 17.3685 13.9318 17.2725 13.9743C17.1765 14.0167 17.0893 14.0793 17.0159 14.1586C16.9426 14.2378 16.8846 14.332 16.8453 14.4357C16.806 14.5394 16.7862 14.6505 16.7871 14.7625C16.788 14.8745 16.8096 14.9853 16.8505 15.0882C16.8915 15.1911 16.951 15.2842 17.0256 15.3621L17.6451 16.0312L9.37512 24.9632L8.33766 23.8431C8.76135 23.1533 8.98643 22.3434 8.98451 21.5156C8.98451 19.1894 7.23223 17.2968 5.07841 17.2968C4.31211 17.2945 3.56236 17.5375 2.92381 17.995L1.88674 16.8749L10.1563 7.94293Z" fill="black"/>
</svg>
