<svg width="342" height="276" viewBox="0 0 342 276" fill="none" xmlns="http://www.w3.org/2000/svg">
<line x1="60" y1="17" x2="60" y2="91" stroke="#22C55E" stroke-width="4"/>
<line x1="60" y1="98" x2="60" y2="172" stroke="#C4C4C4" stroke-width="4"/>
<line x1="60" y1="186" x2="60" y2="260" stroke="#C4C4C4" stroke-width="4"/>
<circle cx="60" cy="178" r="8" fill="#C4C4C4"/>
<circle cx="60" cy="268" r="8" fill="#C4C4C4"/>
<circle cx="60" cy="10" r="8" fill="#22C55E"/>
<circle cx="60" cy="94" r="8" fill="#22C55E"/>
<path d="M10.2976 8.04474C10.174 7.65696 10.0078 7.30966 9.79901 7.00284C9.59446 6.69176 9.34943 6.42756 9.06392 6.21023C8.77841 5.98864 8.45241 5.82031 8.08594 5.70526C7.72372 5.5902 7.32528 5.53267 6.89062 5.53267C6.15341 5.53267 5.48864 5.7223 4.89631 6.10156C4.30398 6.48082 3.83523 7.03693 3.49006 7.76989C3.14915 8.49858 2.97869 9.39133 2.97869 10.4482C2.97869 11.5092 3.15128 12.4062 3.49645 13.1392C3.84162 13.8722 4.31463 14.4283 4.91548 14.8075C5.51634 15.1868 6.20028 15.3764 6.96733 15.3764C7.67898 15.3764 8.29901 15.2315 8.82741 14.9418C9.36009 14.652 9.77131 14.2429 10.0611 13.7145C10.3551 13.1818 10.5021 12.5554 10.5021 11.8352L11.0135 11.9311H7.26776V10.3011H12.4134V11.7905C12.4134 12.8899 12.179 13.8445 11.7102 14.6541C11.2457 15.4595 10.6023 16.0817 9.77983 16.5206C8.96165 16.9595 8.02415 17.179 6.96733 17.179C5.78267 17.179 4.7429 16.9062 3.84801 16.3608C2.95739 15.8153 2.26278 15.0419 1.7642 14.0405C1.26563 13.0348 1.01634 11.8416 1.01634 10.4609C1.01634 9.4169 1.16122 8.4794 1.45099 7.64844C1.74077 6.81747 2.14773 6.11222 2.67188 5.53267C3.20028 4.94886 3.82031 4.50355 4.53196 4.19673C5.24787 3.88565 6.02983 3.73011 6.87784 3.73011C7.58523 3.73011 8.24361 3.83452 8.85298 4.04332C9.46662 4.25213 10.0121 4.54829 10.4893 4.93182C10.9709 5.31534 11.3693 5.77131 11.6847 6.29972C12 6.82386 12.2131 7.40554 12.3239 8.04474H10.2976ZM26.2921 10.4545C26.2921 11.8523 26.0364 13.054 25.525 14.0597C25.0137 15.0611 24.3127 15.8324 23.4221 16.3736C22.5357 16.9105 21.5279 17.179 20.3986 17.179C19.2651 17.179 18.253 16.9105 17.3624 16.3736C16.476 15.8324 15.7772 15.0589 15.2658 14.0533C14.7544 13.0476 14.4988 11.848 14.4988 10.4545C14.4988 9.05682 14.7544 7.85724 15.2658 6.85582C15.7772 5.85014 16.476 5.07883 17.3624 4.5419C18.253 4.00071 19.2651 3.73011 20.3986 3.73011C21.5279 3.73011 22.5357 4.00071 23.4221 4.5419C24.3127 5.07883 25.0137 5.85014 25.525 6.85582C26.0364 7.85724 26.2921 9.05682 26.2921 10.4545ZM24.3361 10.4545C24.3361 9.3892 24.1635 8.49219 23.8184 7.76349C23.4775 7.03054 23.0087 6.47656 22.4121 6.10156C21.8198 5.7223 21.1486 5.53267 20.3986 5.53267C19.6444 5.53267 18.9711 5.7223 18.3787 6.10156C17.7864 6.47656 17.3176 7.03054 16.9725 7.76349C16.6316 8.49219 16.4611 9.3892 16.4611 10.4545C16.4611 11.5199 16.6316 12.419 16.9725 13.152C17.3176 13.8807 17.7864 14.4347 18.3787 14.8139C18.9711 15.1889 19.6444 15.3764 20.3986 15.3764C21.1486 15.3764 21.8198 15.1889 22.4121 14.8139C23.0087 14.4347 23.4775 13.8807 23.8184 13.152C24.1635 12.419 24.3361 11.5199 24.3361 10.4545ZM27.5465 5.60938V3.90909H37.6779V5.60938H33.5934V17H31.6246V5.60938H27.5465Z" fill="#3D3D3F"/>
<path d="M10.2976 91.0447C10.174 90.657 10.0078 90.3097 9.79901 90.0028C9.59446 89.6918 9.34943 89.4276 9.06392 89.2102C8.77841 88.9886 8.45241 88.8203 8.08594 88.7053C7.72372 88.5902 7.32528 88.5327 6.89062 88.5327C6.15341 88.5327 5.48864 88.7223 4.89631 89.1016C4.30398 89.4808 3.83523 90.0369 3.49006 90.7699C3.14915 91.4986 2.97869 92.3913 2.97869 93.4482C2.97869 94.5092 3.15128 95.4062 3.49645 96.1392C3.84162 96.8722 4.31463 97.4283 4.91548 97.8075C5.51634 98.1868 6.20028 98.3764 6.96733 98.3764C7.67898 98.3764 8.29901 98.2315 8.82741 97.9418C9.36009 97.652 9.77131 97.2429 10.0611 96.7145C10.3551 96.1818 10.5021 95.5554 10.5021 94.8352L11.0135 94.9311H7.26776V93.3011H12.4134V94.7905C12.4134 95.8899 12.179 96.8445 11.7102 97.6541C11.2457 98.4595 10.6023 99.0817 9.77983 99.5206C8.96165 99.9595 8.02415 100.179 6.96733 100.179C5.78267 100.179 4.7429 99.9062 3.84801 99.3608C2.95739 98.8153 2.26278 98.0419 1.7642 97.0405C1.26563 96.0348 1.01634 94.8416 1.01634 93.4609C1.01634 92.4169 1.16122 91.4794 1.45099 90.6484C1.74077 89.8175 2.14773 89.1122 2.67188 88.5327C3.20028 87.9489 3.82031 87.5036 4.53196 87.1967C5.24787 86.8857 6.02983 86.7301 6.87784 86.7301C7.58523 86.7301 8.24361 86.8345 8.85298 87.0433C9.46662 87.2521 10.0121 87.5483 10.4893 87.9318C10.9709 88.3153 11.3693 88.7713 11.6847 89.2997C12 89.8239 12.2131 90.4055 12.3239 91.0447H10.2976ZM26.2921 93.4545C26.2921 94.8523 26.0364 96.054 25.525 97.0597C25.0137 98.0611 24.3127 98.8324 23.4221 99.3736C22.5357 99.9105 21.5279 100.179 20.3986 100.179C19.2651 100.179 18.253 99.9105 17.3624 99.3736C16.476 98.8324 15.7772 98.0589 15.2658 97.0533C14.7544 96.0476 14.4988 94.848 14.4988 93.4545C14.4988 92.0568 14.7544 90.8572 15.2658 89.8558C15.7772 88.8501 16.476 88.0788 17.3624 87.5419C18.253 87.0007 19.2651 86.7301 20.3986 86.7301C21.5279 86.7301 22.5357 87.0007 23.4221 87.5419C24.3127 88.0788 25.0137 88.8501 25.525 89.8558C26.0364 90.8572 26.2921 92.0568 26.2921 93.4545ZM24.3361 93.4545C24.3361 92.3892 24.1635 91.4922 23.8184 90.7635C23.4775 90.0305 23.0087 89.4766 22.4121 89.1016C21.8198 88.7223 21.1486 88.5327 20.3986 88.5327C19.6444 88.5327 18.9711 88.7223 18.3787 89.1016C17.7864 89.4766 17.3176 90.0305 16.9725 90.7635C16.6316 91.4922 16.4611 92.3892 16.4611 93.4545C16.4611 94.5199 16.6316 95.419 16.9725 96.152C17.3176 96.8807 17.7864 97.4347 18.3787 97.8139C18.9711 98.1889 19.6444 98.3764 20.3986 98.3764C21.1486 98.3764 21.8198 98.1889 22.4121 97.8139C23.0087 97.4347 23.4775 96.8807 23.8184 96.152C24.1635 95.419 24.3361 94.5199 24.3361 93.4545ZM27.5465 88.6094V86.9091H37.6779V88.6094H33.5934V100H31.6246V88.6094H27.5465Z" fill="#3D3D3F"/>
<path d="M2.54403 183H0.447443L5.15838 169.909H7.44034L12.1513 183H10.0547L6.35369 172.287H6.25142L2.54403 183ZM2.8956 177.874H9.69673V179.536H2.8956V177.874ZM14.0417 169.909H16.4387L20.6064 180.085H20.7598L24.9274 169.909H27.3244V183H25.4451V173.527H25.3237L21.4629 182.981H19.9032L16.0424 173.521H15.921V183H14.0417V169.909ZM37.3359 173.348C37.2678 172.743 36.9865 172.274 36.4922 171.942C35.9979 171.605 35.3757 171.437 34.6257 171.437C34.0888 171.437 33.6243 171.522 33.2322 171.692C32.8402 171.859 32.5355 172.089 32.3182 172.383C32.1051 172.673 31.9986 173.003 31.9986 173.374C31.9986 173.685 32.071 173.953 32.2159 174.179C32.3651 174.405 32.5589 174.594 32.7976 174.748C33.0405 174.897 33.3004 175.023 33.5774 175.125C33.8544 175.223 34.1207 175.304 34.3764 175.368L35.6548 175.7C36.0724 175.803 36.5007 175.941 36.9396 176.116C37.3786 176.29 37.7855 176.521 38.1605 176.806C38.5355 177.092 38.8381 177.445 39.0682 177.867C39.3026 178.289 39.4197 178.794 39.4197 179.382C39.4197 180.124 39.228 180.782 38.8445 181.357C38.4652 181.933 37.9134 182.386 37.1889 182.719C36.4688 183.051 35.5973 183.217 34.5746 183.217C33.5945 183.217 32.7464 183.062 32.0305 182.751C31.3146 182.44 30.7543 181.999 30.3494 181.428C29.9446 180.852 29.7209 180.17 29.6783 179.382H31.6598C31.6982 179.855 31.8516 180.249 32.12 180.565C32.3928 180.876 32.7401 181.108 33.1619 181.261C33.5881 181.411 34.0547 181.485 34.5618 181.485C35.12 181.485 35.6165 181.398 36.0511 181.223C36.4901 181.044 36.8352 180.797 37.0866 180.482C37.3381 180.162 37.4638 179.789 37.4638 179.363C37.4638 178.975 37.353 178.658 37.1314 178.411C36.9141 178.163 36.6179 177.959 36.2429 177.797C35.8722 177.635 35.4524 177.492 34.9837 177.369L33.4368 176.947C32.3885 176.661 31.5575 176.241 30.9439 175.688C30.3345 175.134 30.0298 174.401 30.0298 173.489C30.0298 172.734 30.2344 172.076 30.6435 171.513C31.0526 170.951 31.6065 170.514 32.3054 170.203C33.0043 169.888 33.7926 169.73 34.6705 169.73C35.5568 169.73 36.3388 169.886 37.0163 170.197C37.6982 170.508 38.2351 170.936 38.6271 171.482C39.0192 172.023 39.2237 172.645 39.2408 173.348H37.3359Z" fill="#3D3D3F"/>
<path d="M2.54403 275H0.447443L5.15838 261.909H7.44034L12.1513 275H10.0547L6.35369 264.287H6.25142L2.54403 275ZM2.8956 269.874H9.69673V271.536H2.8956V269.874ZM14.0417 261.909H16.4387L20.6064 272.085H20.7598L24.9274 261.909H27.3244V275H25.4451V265.527H25.3237L21.4629 274.981H19.9032L16.0424 265.521H15.921V275H14.0417V261.909ZM37.3359 265.348C37.2678 264.743 36.9865 264.274 36.4922 263.942C35.9979 263.605 35.3757 263.437 34.6257 263.437C34.0888 263.437 33.6243 263.522 33.2322 263.692C32.8402 263.859 32.5355 264.089 32.3182 264.383C32.1051 264.673 31.9986 265.003 31.9986 265.374C31.9986 265.685 32.071 265.953 32.2159 266.179C32.3651 266.405 32.5589 266.594 32.7976 266.748C33.0405 266.897 33.3004 267.023 33.5774 267.125C33.8544 267.223 34.1207 267.304 34.3764 267.368L35.6548 267.7C36.0724 267.803 36.5007 267.941 36.9396 268.116C37.3786 268.29 37.7855 268.521 38.1605 268.806C38.5355 269.092 38.8381 269.445 39.0682 269.867C39.3026 270.289 39.4197 270.794 39.4197 271.382C39.4197 272.124 39.228 272.782 38.8445 273.357C38.4652 273.933 37.9134 274.386 37.1889 274.719C36.4688 275.051 35.5973 275.217 34.5746 275.217C33.5945 275.217 32.7464 275.062 32.0305 274.751C31.3146 274.44 30.7543 273.999 30.3494 273.428C29.9446 272.852 29.7209 272.17 29.6783 271.382H31.6598C31.6982 271.855 31.8516 272.249 32.12 272.565C32.3928 272.876 32.7401 273.108 33.1619 273.261C33.5881 273.411 34.0547 273.485 34.5618 273.485C35.12 273.485 35.6165 273.398 36.0511 273.223C36.4901 273.044 36.8352 272.797 37.0866 272.482C37.3381 272.162 37.4638 271.789 37.4638 271.363C37.4638 270.975 37.353 270.658 37.1314 270.411C36.9141 270.163 36.6179 269.959 36.2429 269.797C35.8722 269.635 35.4524 269.492 34.9837 269.369L33.4368 268.947C32.3885 268.661 31.5575 268.241 30.9439 267.688C30.3345 267.134 30.0298 266.401 30.0298 265.489C30.0298 264.734 30.2344 264.076 30.6435 263.513C31.0526 262.951 31.6065 262.514 32.3054 262.203C33.0043 261.888 33.7926 261.73 34.6705 261.73C35.5568 261.73 36.3388 261.886 37.0163 262.197C37.6982 262.508 38.2351 262.936 38.6271 263.482C39.0192 264.023 39.2237 264.645 39.2408 265.348H37.3359Z" fill="#3D3D3F"/>
<path d="M99.6838 29H98.0531L101.717 18.8182H103.492L107.156 29H105.525L102.647 20.6676H102.567L99.6838 29ZM99.9572 25.0128H105.247V26.3054H99.9572V25.0128ZM113.344 25.8331V21.3636H114.836V29H113.374V27.6776H113.295C113.119 28.0852 112.837 28.425 112.45 28.6967C112.065 28.9652 111.586 29.0994 111.013 29.0994C110.522 29.0994 110.088 28.9917 109.71 28.7763C109.336 28.5575 109.041 28.2344 108.825 27.8068C108.613 27.3793 108.507 26.8506 108.507 26.2209V21.3636H109.994V26.0419C109.994 26.5623 110.138 26.9766 110.426 27.2848C110.714 27.593 111.089 27.7472 111.55 27.7472C111.828 27.7472 112.105 27.6776 112.38 27.5384C112.658 27.3991 112.889 27.1887 113.071 26.907C113.257 26.6252 113.348 26.2673 113.344 25.8331ZM120.035 32.0227C119.428 32.0227 118.906 31.9432 118.469 31.7841C118.035 31.625 117.68 31.4145 117.405 31.1527C117.13 30.8909 116.924 30.6042 116.789 30.2926L118.066 29.7656C118.156 29.9115 118.275 30.0656 118.424 30.228C118.577 30.3937 118.782 30.5346 119.041 30.6506C119.302 30.7666 119.639 30.8246 120.05 30.8246C120.613 30.8246 121.079 30.687 121.447 30.4119C121.815 30.1402 121.999 29.706 121.999 29.1094V27.608H121.904C121.815 27.7704 121.686 27.951 121.517 28.1499C121.351 28.3487 121.122 28.5211 120.83 28.6669C120.539 28.8127 120.159 28.8857 119.692 28.8857C119.089 28.8857 118.545 28.7448 118.061 28.4631C117.581 28.178 117.2 27.7588 116.918 27.2053C116.639 26.6484 116.5 25.964 116.5 25.152C116.5 24.34 116.638 23.6439 116.913 23.0639C117.191 22.4839 117.572 22.0398 118.056 21.7315C118.54 21.42 119.089 21.2642 119.702 21.2642C120.176 21.2642 120.559 21.3438 120.85 21.5028C121.142 21.6586 121.369 21.8409 121.531 22.0497C121.697 22.2585 121.825 22.4425 121.914 22.6016H122.024V21.3636H123.48V29.169C123.48 29.8253 123.328 30.3639 123.023 30.7848C122.718 31.2057 122.305 31.5173 121.785 31.7195C121.268 31.9216 120.685 32.0227 120.035 32.0227ZM120.02 27.6527C120.448 27.6527 120.809 27.5533 121.104 27.3544C121.402 27.1522 121.628 26.8639 121.78 26.4893C121.936 26.1115 122.014 25.6591 122.014 25.1321C122.014 24.6184 121.937 24.166 121.785 23.7749C121.633 23.3838 121.409 23.0788 121.114 22.8601C120.819 22.638 120.454 22.527 120.02 22.527C119.573 22.527 119.2 22.643 118.901 22.875C118.603 23.1037 118.378 23.4152 118.225 23.8097C118.076 24.2041 118.002 24.6449 118.002 25.1321C118.002 25.6326 118.078 26.0717 118.23 26.4496C118.383 26.8274 118.608 27.1224 118.906 27.3345C119.208 27.5466 119.579 27.6527 120.02 27.6527ZM132.739 18.8182V29H131.197V20.8913H131.113C131.06 20.9908 130.937 21.0985 130.745 21.2145C130.556 21.3305 130.313 21.4316 130.014 21.5178C129.719 21.6039 129.378 21.647 128.99 21.647V20.3842C129.365 20.3842 129.691 20.3179 129.969 20.1854C130.251 20.0528 130.49 19.8937 130.685 19.7081C130.881 19.5192 131.03 19.3419 131.133 19.1761C131.236 19.0071 131.294 18.8878 131.307 18.8182H132.739ZM135.275 27.0114V25.7685L139.263 18.8182H140.764L136.871 25.6293V25.7088H142.917V27.0114H135.275ZM140.103 29V26.6435L140.123 26.0668V22.6364H141.559V29H140.103Z" fill="#3D3D3F"/>
<path d="M99.6838 114H98.0531L101.717 103.818H103.492L107.156 114H105.525L102.647 105.668H102.567L99.6838 114ZM99.9572 110.013H105.247V111.305H99.9572V110.013ZM113.344 110.833V106.364H114.836V114H113.374V112.678H113.295C113.119 113.085 112.837 113.425 112.45 113.697C112.065 113.965 111.586 114.099 111.013 114.099C110.522 114.099 110.088 113.992 109.71 113.776C109.336 113.558 109.041 113.234 108.825 112.807C108.613 112.379 108.507 111.851 108.507 111.221V106.364H109.994V111.042C109.994 111.562 110.138 111.977 110.426 112.285C110.714 112.593 111.089 112.747 111.55 112.747C111.828 112.747 112.105 112.678 112.38 112.538C112.658 112.399 112.889 112.189 113.071 111.907C113.257 111.625 113.348 111.267 113.344 110.833ZM120.035 117.023C119.428 117.023 118.906 116.943 118.469 116.784C118.035 116.625 117.68 116.415 117.405 116.153C117.13 115.891 116.924 115.604 116.789 115.293L118.066 114.766C118.156 114.911 118.275 115.066 118.424 115.228C118.577 115.394 118.782 115.535 119.041 115.651C119.302 115.767 119.639 115.825 120.05 115.825C120.613 115.825 121.079 115.687 121.447 115.412C121.815 115.14 121.999 114.706 121.999 114.109V112.608H121.904C121.815 112.77 121.686 112.951 121.517 113.15C121.351 113.349 121.122 113.521 120.83 113.667C120.539 113.813 120.159 113.886 119.692 113.886C119.089 113.886 118.545 113.745 118.061 113.463C117.581 113.178 117.2 112.759 116.918 112.205C116.639 111.648 116.5 110.964 116.5 110.152C116.5 109.34 116.638 108.644 116.913 108.064C117.191 107.484 117.572 107.04 118.056 106.732C118.54 106.42 119.089 106.264 119.702 106.264C120.176 106.264 120.559 106.344 120.85 106.503C121.142 106.659 121.369 106.841 121.531 107.05C121.697 107.259 121.825 107.442 121.914 107.602H122.024V106.364H123.48V114.169C123.48 114.825 123.328 115.364 123.023 115.785C122.718 116.206 122.305 116.517 121.785 116.719C121.268 116.922 120.685 117.023 120.035 117.023ZM120.02 112.653C120.448 112.653 120.809 112.553 121.104 112.354C121.402 112.152 121.628 111.864 121.78 111.489C121.936 111.112 122.014 110.659 122.014 110.132C122.014 109.618 121.937 109.166 121.785 108.775C121.633 108.384 121.409 108.079 121.114 107.86C120.819 107.638 120.454 107.527 120.02 107.527C119.573 107.527 119.2 107.643 118.901 107.875C118.603 108.104 118.378 108.415 118.225 108.81C118.076 109.204 118.002 109.645 118.002 110.132C118.002 110.633 118.078 111.072 118.23 111.45C118.383 111.827 118.608 112.122 118.906 112.335C119.208 112.547 119.579 112.653 120.02 112.653ZM132.739 103.818V114H131.197V105.891H131.113C131.06 105.991 130.937 106.098 130.745 106.214C130.556 106.33 130.313 106.432 130.014 106.518C129.719 106.604 129.378 106.647 128.99 106.647V105.384C129.365 105.384 129.691 105.318 129.969 105.185C130.251 105.053 130.49 104.894 130.685 104.708C130.881 104.519 131.03 104.342 131.133 104.176C131.236 104.007 131.294 103.888 131.307 103.818H132.739ZM135.275 112.011V110.768L139.263 103.818H140.764L136.871 110.629V110.709H142.917V112.011H135.275ZM140.103 114V111.643L140.123 111.067V107.636H141.559V114H140.103Z" fill="#3D3D3F"/>
<path d="M191.979 114H190.348L194.012 103.818H195.787L199.451 114H197.82L194.942 105.668H194.862L191.979 114ZM192.252 110.013H197.542V111.305H192.252V110.013ZM201.781 114H200.151L203.815 103.818H205.59L209.254 114H207.623L204.744 105.668H204.665L201.781 114ZM202.055 110.013H207.345V111.305H202.055V110.013ZM210.371 112.011V110.768L214.358 103.818H215.86L211.967 110.629V110.709H218.012V112.011H210.371ZM215.199 114V111.643L215.218 111.067V107.636H216.655V114H215.199ZM219.576 110.749C219.583 110.417 219.631 110.079 219.72 109.734C219.813 109.39 219.962 109.015 220.168 108.611C220.373 108.206 220.648 107.747 220.993 107.234L223.305 103.818H224.925L222.315 107.636C222.435 107.6 222.559 107.57 222.688 107.547C222.821 107.52 222.953 107.507 223.086 107.507C223.706 107.507 224.258 107.65 224.741 107.935C225.225 108.22 225.607 108.609 225.885 109.103C226.167 109.597 226.308 110.164 226.308 110.803C226.308 111.456 226.162 112.033 225.87 112.533C225.582 113.034 225.184 113.427 224.677 113.712C224.173 113.997 223.598 114.139 222.952 114.139C222.312 114.139 221.735 113.998 221.222 113.717C220.711 113.432 220.308 113.036 220.013 112.528C219.719 112.018 219.573 111.425 219.576 110.749ZM221.062 110.808C221.062 111.209 221.142 111.564 221.301 111.872C221.46 112.18 221.682 112.422 221.967 112.598C222.252 112.774 222.58 112.862 222.952 112.862C223.32 112.862 223.644 112.775 223.926 112.603C224.211 112.427 224.433 112.187 224.592 111.882C224.755 111.574 224.836 111.223 224.836 110.828C224.836 110.427 224.755 110.074 224.592 109.769C224.433 109.461 224.211 109.221 223.926 109.048C223.644 108.876 223.32 108.79 222.952 108.79C222.58 108.79 222.252 108.876 221.967 109.048C221.682 109.221 221.46 109.459 221.301 109.764C221.142 110.066 221.062 110.414 221.062 110.808ZM227.875 110.749C227.881 110.417 227.93 110.079 228.019 109.734C228.112 109.39 228.261 109.015 228.466 108.611C228.672 108.206 228.947 107.747 229.292 107.234L231.604 103.818H233.224L230.614 107.636C230.733 107.6 230.858 107.57 230.987 107.547C231.12 107.52 231.252 107.507 231.385 107.507C232.005 107.507 232.556 107.65 233.04 107.935C233.524 108.22 233.905 108.609 234.184 109.103C234.465 109.597 234.606 110.164 234.606 110.803C234.606 111.456 234.461 112.033 234.169 112.533C233.881 113.034 233.483 113.427 232.976 113.712C232.472 113.997 231.897 114.139 231.251 114.139C230.611 114.139 230.034 113.998 229.52 113.717C229.01 113.432 228.607 113.036 228.312 112.528C228.017 112.018 227.872 111.425 227.875 110.749ZM229.361 110.808C229.361 111.209 229.441 111.564 229.6 111.872C229.759 112.18 229.981 112.422 230.266 112.598C230.551 112.774 230.879 112.862 231.251 112.862C231.618 112.862 231.943 112.775 232.225 112.603C232.51 112.427 232.732 112.187 232.891 111.882C233.054 111.574 233.135 111.223 233.135 110.828C233.135 110.427 233.054 110.074 232.891 109.769C232.732 109.461 232.51 109.221 232.225 109.048C231.943 108.876 231.618 108.79 231.251 108.79C230.879 108.79 230.551 108.876 230.266 109.048C229.981 109.221 229.759 109.459 229.6 109.764C229.441 110.066 229.361 110.414 229.361 110.808ZM236.125 114L240.57 105.21V105.136H235.429V103.818H242.161V105.18L237.731 114H236.125Z" fill="#3D3D3F"/>
<path d="M99.0412 4.81818V15H96.8935V7.45312H96.799C96.7261 7.56581 96.5968 7.68016 96.4112 7.79616C96.2289 7.91217 95.9953 8.00994 95.7102 8.08949C95.4285 8.16903 95.1004 8.20881 94.7259 8.20881V6.49858C95.054 6.49858 95.3506 6.44223 95.6158 6.32955C95.8842 6.21354 96.1162 6.06771 96.3118 5.89205C96.5073 5.71638 96.6581 5.53243 96.7642 5.3402C96.8703 5.14796 96.9266 4.97396 96.9332 4.81818H99.0412ZM105.448 15.2237C104.593 15.2204 103.857 15.0099 103.241 14.5923C102.628 14.1747 102.155 13.5698 101.824 12.7777C101.496 11.9856 101.334 11.0327 101.337 9.91903C101.337 8.80871 101.501 7.86245 101.829 7.08026C102.16 6.29806 102.633 5.70312 103.246 5.29545C103.862 4.88447 104.597 4.67898 105.448 4.67898C106.3 4.67898 107.033 4.88447 107.646 5.29545C108.262 5.70644 108.736 6.30303 109.068 7.08523C109.399 7.86411 109.563 8.80871 109.56 9.91903C109.56 11.036 109.394 11.9905 109.063 12.7827C108.735 13.5748 108.264 14.1797 107.651 14.5973C107.038 15.0149 106.303 15.2237 105.448 15.2237ZM105.448 13.4389C106.032 13.4389 106.497 13.1456 106.845 12.5589C107.193 11.9723 107.366 11.0923 107.362 9.91903C107.362 9.14678 107.283 8.50379 107.124 7.99006C106.968 7.47633 106.746 7.0902 106.458 6.83168C106.173 6.57315 105.836 6.44389 105.448 6.44389C104.868 6.44389 104.404 6.7339 104.056 7.31392C103.708 7.89394 103.533 8.76231 103.529 9.91903C103.529 10.7012 103.607 11.3542 103.763 11.8778C103.922 12.3982 104.146 12.7893 104.434 13.0511C104.722 13.3097 105.061 13.4389 105.448 13.4389ZM112.353 13.8168C112.025 13.8168 111.743 13.7008 111.507 13.4688C111.275 13.2367 111.159 12.955 111.159 12.6236C111.159 12.2988 111.275 12.0204 111.507 11.7884C111.743 11.5563 112.025 11.4403 112.353 11.4403C112.671 11.4403 112.949 11.5563 113.188 11.7884C113.426 12.0204 113.546 12.2988 113.546 12.6236C113.546 12.8423 113.489 13.0429 113.377 13.2251C113.267 13.4041 113.123 13.5483 112.944 13.6577C112.765 13.7637 112.568 13.8168 112.353 13.8168ZM112.353 8.82031C112.025 8.82031 111.743 8.70431 111.507 8.4723C111.275 8.24029 111.159 7.95857 111.159 7.62713C111.159 7.30232 111.275 7.02557 111.507 6.79688C111.743 6.56487 112.025 6.44886 112.353 6.44886C112.671 6.44886 112.949 6.56487 113.188 6.79688C113.426 7.02557 113.546 7.30232 113.546 7.62713C113.546 7.84919 113.489 8.05137 113.377 8.23366C113.267 8.41264 113.123 8.55516 112.944 8.66122C112.765 8.76728 112.568 8.82031 112.353 8.82031ZM115.106 12.1214H117.278C117.298 12.3767 117.384 12.5987 117.537 12.7876C117.693 12.9732 117.896 13.1158 118.148 13.2152C118.4 13.3146 118.679 13.3643 118.983 13.3643C119.315 13.3643 119.605 13.308 119.854 13.1953C120.105 13.0826 120.303 12.9202 120.445 12.7081C120.588 12.496 120.659 12.2457 120.659 11.9574C120.659 11.6757 120.588 11.4254 120.445 11.2067C120.303 10.9846 120.089 10.8106 119.804 10.6847C119.519 10.5554 119.166 10.4908 118.745 10.4908H117.646V8.99432L119.903 6.64773V6.57812H115.618V4.81818H122.548V6.36932L119.814 9.13352V9.21307C120.351 9.2661 120.813 9.3821 121.201 9.56108C121.592 9.74006 121.912 9.96378 122.16 10.2322C122.409 10.4974 122.595 10.7907 122.717 11.1122C122.84 11.4337 122.901 11.7635 122.901 12.1016C122.901 12.7015 122.729 13.2301 122.384 13.6875C122.043 14.1449 121.577 14.5012 120.987 14.7564C120.397 15.0116 119.728 15.1392 118.979 15.1392C118.233 15.1392 117.572 15.0133 116.995 14.7614C116.421 14.5095 115.967 14.1581 115.633 13.7074C115.301 13.2533 115.126 12.7247 115.106 12.1214ZM128.444 15.2237C127.589 15.2204 126.854 15.0099 126.237 14.5923C125.624 14.1747 125.152 13.5698 124.82 12.7777C124.492 11.9856 124.33 11.0327 124.333 9.91903C124.333 8.80871 124.497 7.86245 124.825 7.08026C125.157 6.29806 125.629 5.70312 126.242 5.29545C126.858 4.88447 127.593 4.67898 128.444 4.67898C129.296 4.67898 130.029 4.88447 130.642 5.29545C131.258 5.70644 131.732 6.30303 132.064 7.08523C132.395 7.86411 132.559 8.80871 132.556 9.91903C132.556 11.036 132.39 11.9905 132.059 12.7827C131.731 13.5748 131.26 14.1797 130.647 14.5973C130.034 15.0149 129.3 15.2237 128.444 15.2237ZM128.444 13.4389C129.028 13.4389 129.493 13.1456 129.841 12.5589C130.189 11.9723 130.362 11.0923 130.358 9.91903C130.358 9.14678 130.279 8.50379 130.12 7.99006C129.964 7.47633 129.742 7.0902 129.454 6.83168C129.169 6.57315 128.832 6.44389 128.444 6.44389C127.864 6.44389 127.4 6.7339 127.052 7.31392C126.704 7.89394 126.529 8.76231 126.525 9.91903C126.525 10.7012 126.603 11.3542 126.759 11.8778C126.918 12.3982 127.142 12.7893 127.43 13.0511C127.719 13.3097 128.057 13.4389 128.444 13.4389ZM139.146 15H136.839L140.354 4.81818H143.128L146.638 15H144.331L141.781 7.14489H141.701L139.146 15ZM139.002 10.9979H144.45V12.6783H139.002V10.9979ZM147.863 4.81818H150.518L153.322 11.6591H153.442L156.246 4.81818H158.9V15H156.812V8.37287H156.728L154.093 14.9503H152.671L150.036 8.34801H149.952V15H147.863V4.81818Z" fill="#3D3D3F"/>
<path d="M99.0412 86.8182V97H96.8935V89.4531H96.799C96.7261 89.5658 96.5968 89.6802 96.4112 89.7962C96.2289 89.9122 95.9953 90.0099 95.7102 90.0895C95.4285 90.169 95.1004 90.2088 94.7259 90.2088V88.4986C95.054 88.4986 95.3506 88.4422 95.6158 88.3295C95.8842 88.2135 96.1162 88.0677 96.3118 87.892C96.5073 87.7164 96.6581 87.5324 96.7642 87.3402C96.8703 87.148 96.9266 86.974 96.9332 86.8182H99.0412ZM105.672 86.8182V97H103.524V89.4531H103.43C103.357 89.5658 103.228 89.6802 103.042 89.7962C102.86 89.9122 102.626 90.0099 102.341 90.0895C102.059 90.169 101.731 90.2088 101.357 90.2088V88.4986C101.685 88.4986 101.981 88.4422 102.247 88.3295C102.515 88.2135 102.747 88.0677 102.943 87.892C103.138 87.7164 103.289 87.5324 103.395 87.3402C103.501 87.148 103.557 86.974 103.564 86.8182H105.672ZM109.345 95.8168C109.017 95.8168 108.735 95.7008 108.5 95.4688C108.268 95.2367 108.152 94.955 108.152 94.6236C108.152 94.2988 108.268 94.0204 108.5 93.7884C108.735 93.5563 109.017 93.4403 109.345 93.4403C109.663 93.4403 109.941 93.5563 110.18 93.7884C110.419 94.0204 110.538 94.2988 110.538 94.6236C110.538 94.8423 110.482 95.0429 110.369 95.2251C110.26 95.4041 110.115 95.5483 109.936 95.6577C109.757 95.7637 109.56 95.8168 109.345 95.8168ZM109.345 90.8203C109.017 90.8203 108.735 90.7043 108.5 90.4723C108.268 90.2403 108.152 89.9586 108.152 89.6271C108.152 89.3023 108.268 89.0256 108.5 88.7969C108.735 88.5649 109.017 88.4489 109.345 88.4489C109.663 88.4489 109.941 88.5649 110.18 88.7969C110.419 89.0256 110.538 89.3023 110.538 89.6271C110.538 89.8492 110.482 90.0514 110.369 90.2337C110.26 90.4126 110.115 90.5552 109.936 90.6612C109.757 90.7673 109.56 90.8203 109.345 90.8203ZM112.103 95.2102V93.5149L115.906 86.8182H117.979L114.265 93.4055V93.4851H120.311V95.2102H112.103ZM116.99 97V94.7081L117.05 93.9425V90.6364H119.013V97H116.99ZM121.725 93.6939C121.725 93.3359 121.772 92.9796 121.865 92.625C121.961 92.2704 122.105 91.9041 122.297 91.5263C122.489 91.1484 122.733 90.7424 123.028 90.3082L125.384 86.8182H127.552L125.081 90.4375C125.207 90.411 125.336 90.3878 125.469 90.3679C125.605 90.3447 125.742 90.3331 125.882 90.3331C126.508 90.3331 127.063 90.474 127.547 90.7557C128.031 91.0374 128.41 91.4268 128.686 91.924C128.964 92.4212 129.103 92.9962 129.103 93.6491C129.103 94.3485 128.946 94.96 128.631 95.4837C128.316 96.0073 127.883 96.415 127.333 96.7067C126.783 96.995 126.155 97.1392 125.449 97.1392C124.77 97.1392 124.146 97.0033 123.58 96.7315C123.016 96.4598 122.566 96.067 122.227 95.5533C121.889 95.0395 121.722 94.4197 121.725 93.6939ZM123.828 93.7138C123.828 94.0552 123.896 94.3568 124.032 94.6186C124.168 94.8804 124.357 95.0859 124.599 95.2351C124.841 95.3842 125.121 95.4588 125.439 95.4588C125.754 95.4588 126.031 95.3842 126.269 95.2351C126.511 95.0859 126.699 94.8804 126.831 94.6186C126.967 94.3568 127.035 94.0585 127.035 93.7237C127.035 93.3823 126.965 93.0824 126.826 92.8239C126.69 92.562 126.501 92.3582 126.259 92.2124C126.021 92.0632 125.747 91.9886 125.439 91.9886C125.121 91.9886 124.841 92.0632 124.599 92.2124C124.357 92.3582 124.168 92.562 124.032 92.8239C123.896 93.0824 123.828 93.379 123.828 93.7138ZM135.646 97H133.339L136.854 86.8182H139.628L143.138 97H140.831L138.281 89.1449H138.201L135.646 97ZM135.502 92.9979H140.95V94.6783H135.502V92.9979ZM144.363 86.8182H147.018L149.822 93.6591H149.942L152.746 86.8182H155.4V97H153.312V90.3729H153.228L150.593 96.9503H149.171L146.536 90.348H146.452V97H144.363V86.8182Z" fill="#3D3D3F"/>
<path d="M190.885 15V4.81818H194.962C195.711 4.81818 196.335 4.92921 196.836 5.15128C197.336 5.37334 197.713 5.68158 197.964 6.07599C198.216 6.46709 198.342 6.91785 198.342 7.42827C198.342 7.82599 198.263 8.17566 198.104 8.47727C197.945 8.77557 197.726 9.02083 197.447 9.21307C197.172 9.40199 196.857 9.53622 196.503 9.61577V9.7152C196.891 9.73177 197.254 9.84115 197.592 10.0433C197.933 10.2455 198.21 10.5289 198.422 10.8935C198.634 11.2547 198.74 11.6856 198.74 12.1861C198.74 12.7263 198.606 13.2086 198.337 13.6328C198.072 14.0537 197.679 14.3868 197.159 14.6321C196.639 14.8774 195.997 15 195.235 15H190.885ZM193.038 13.2401H194.793C195.393 13.2401 195.83 13.1257 196.105 12.897C196.38 12.665 196.518 12.3568 196.518 11.9723C196.518 11.6906 196.45 11.442 196.314 11.2266C196.178 11.0111 195.984 10.8421 195.732 10.7195C195.484 10.5968 195.187 10.5355 194.842 10.5355H193.038V13.2401ZM193.038 9.07884H194.634C194.929 9.07884 195.19 9.02746 195.419 8.92472C195.651 8.81866 195.833 8.66951 195.966 8.47727C196.102 8.28504 196.17 8.05469 196.17 7.78622C196.17 7.41832 196.039 7.12169 195.777 6.89631C195.518 6.67093 195.151 6.55824 194.673 6.55824H193.038V9.07884ZM202.915 15.1243C202.335 15.1243 201.81 14.9751 201.339 14.6768C200.872 14.3752 200.5 13.9328 200.225 13.3494C199.954 12.7628 199.818 12.0436 199.818 11.1918C199.818 10.3168 199.959 9.58925 200.24 9.00923C200.522 8.4259 200.896 7.99006 201.364 7.7017C201.834 7.41004 202.35 7.2642 202.91 7.2642C203.338 7.2642 203.694 7.33712 203.979 7.48295C204.267 7.62547 204.499 7.80445 204.675 8.01989C204.854 8.23201 204.99 8.44081 205.083 8.64631H205.147V7.36364H207.26V15H205.172V13.777H205.083C204.983 13.9891 204.842 14.1996 204.66 14.4084C204.481 14.6139 204.247 14.7846 203.959 14.9205C203.674 15.0563 203.326 15.1243 202.915 15.1243ZM203.586 13.4389C203.927 13.4389 204.216 13.3461 204.451 13.1605C204.69 12.9716 204.872 12.7081 204.998 12.37C205.127 12.032 205.192 11.6359 205.192 11.1818C205.192 10.7277 205.129 10.3333 205.003 9.99858C204.877 9.66383 204.695 9.4053 204.456 9.22301C204.218 9.04072 203.927 8.94957 203.586 8.94957C203.238 8.94957 202.945 9.04403 202.706 9.23295C202.468 9.42187 202.287 9.68371 202.164 10.0185C202.042 10.3532 201.98 10.741 201.98 11.1818C201.98 11.6259 202.042 12.0187 202.164 12.3601C202.29 12.6982 202.471 12.9633 202.706 13.1555C202.945 13.3445 203.238 13.4389 203.586 13.4389ZM212.442 18.0227C211.756 18.0227 211.167 17.9283 210.677 17.7393C210.19 17.5537 209.802 17.3002 209.513 16.9787C209.225 16.6572 209.038 16.2959 208.952 15.8949L210.911 15.6314C210.97 15.7839 211.065 15.9264 211.194 16.0589C211.323 16.1915 211.494 16.2976 211.706 16.3771C211.921 16.46 212.183 16.5014 212.491 16.5014C212.952 16.5014 213.332 16.3887 213.63 16.1634C213.932 15.9413 214.082 15.5684 214.082 15.0447V13.6477H213.993C213.9 13.8598 213.761 14.0604 213.575 14.2493C213.39 14.4382 213.151 14.5923 212.859 14.7116C212.568 14.831 212.22 14.8906 211.815 14.8906C211.242 14.8906 210.72 14.758 210.249 14.4929C209.782 14.2244 209.409 13.8151 209.131 13.2649C208.856 12.7114 208.718 12.0121 208.718 11.1669C208.718 10.3018 208.859 9.57931 209.141 8.99929C209.422 8.41927 209.797 7.98509 210.264 7.69673C210.735 7.40838 211.25 7.2642 211.81 7.2642C212.238 7.2642 212.596 7.33712 212.884 7.48295C213.173 7.62547 213.405 7.80445 213.58 8.01989C213.759 8.23201 213.897 8.44081 213.993 8.64631H214.072V7.36364H216.175V15.0746C216.175 15.7242 216.016 16.2678 215.698 16.7053C215.38 17.1428 214.939 17.4709 214.376 17.6896C213.816 17.9117 213.171 18.0227 212.442 18.0227ZM212.487 13.2997C212.828 13.2997 213.116 13.2152 213.352 13.0462C213.59 12.8738 213.772 12.6286 213.898 12.3104C214.028 11.9889 214.092 11.6044 214.092 11.157C214.092 10.7095 214.029 10.3217 213.903 9.99361C213.777 9.66217 213.595 9.4053 213.357 9.22301C213.118 9.04072 212.828 8.94957 212.487 8.94957C212.138 8.94957 211.845 9.04403 211.607 9.23295C211.368 9.41856 211.187 9.67708 211.065 10.0085C210.942 10.34 210.881 10.7228 210.881 11.157C210.881 11.5978 210.942 11.9789 211.065 12.3004C211.191 12.6186 211.371 12.8655 211.607 13.0412C211.845 13.2135 212.138 13.2997 212.487 13.2997ZM221.101 15V7.36364H223.219V15H221.101ZM222.165 6.37926C221.85 6.37926 221.58 6.27486 221.355 6.06605C221.133 5.85393 221.021 5.60038 221.021 5.3054C221.021 5.01373 221.133 4.76349 221.355 4.55469C221.58 4.34257 221.85 4.23651 222.165 4.23651C222.48 4.23651 222.748 4.34257 222.97 4.55469C223.196 4.76349 223.308 5.01373 223.308 5.3054C223.308 5.60038 223.196 5.85393 222.97 6.06605C222.748 6.27486 222.48 6.37926 222.165 6.37926ZM231.269 9.54119L229.33 9.66051C229.297 9.49479 229.226 9.34564 229.116 9.21307C229.007 9.07718 228.863 8.96946 228.684 8.88991C228.508 8.80705 228.298 8.76562 228.053 8.76562C227.724 8.76562 227.448 8.83523 227.222 8.97443C226.997 9.11032 226.884 9.29261 226.884 9.52131C226.884 9.7036 226.957 9.85772 227.103 9.98366C227.249 10.1096 227.499 10.2107 227.854 10.2869L229.236 10.5653C229.978 10.7178 230.532 10.9631 230.896 11.3011C231.261 11.6392 231.443 12.0833 231.443 12.6335C231.443 13.134 231.296 13.5732 231.001 13.951C230.709 14.3288 230.308 14.6238 229.798 14.8359C229.29 15.0447 228.705 15.1491 228.043 15.1491C227.032 15.1491 226.226 14.9387 225.626 14.5178C225.03 14.0935 224.68 13.5168 224.577 12.7876L226.661 12.6783C226.723 12.9865 226.876 13.2218 227.118 13.3842C227.36 13.5433 227.67 13.6229 228.048 13.6229C228.419 13.6229 228.717 13.5516 228.942 13.4091C229.171 13.2633 229.287 13.076 229.29 12.8473C229.287 12.6551 229.206 12.4976 229.047 12.375C228.888 12.2491 228.643 12.1529 228.311 12.0866L226.989 11.8232C226.243 11.674 225.688 11.4155 225.323 11.0476C224.962 10.6797 224.781 10.2107 224.781 9.64062C224.781 9.15009 224.914 8.72751 225.179 8.37287C225.447 8.01823 225.824 7.74479 226.308 7.55256C226.795 7.36032 227.365 7.2642 228.018 7.2642C228.982 7.2642 229.741 7.46804 230.295 7.87571C230.852 8.28338 231.176 8.83854 231.269 9.54119ZM239.467 15.1491C238.685 15.1491 238.012 14.9834 237.449 14.652C236.889 14.3172 236.458 13.8532 236.156 13.2599C235.858 12.6667 235.709 11.9839 235.709 11.2116C235.709 10.4295 235.86 9.74337 236.161 9.15341C236.466 8.56013 236.899 8.09777 237.459 7.76633C238.019 7.43158 238.685 7.2642 239.457 7.2642C240.124 7.2642 240.707 7.38518 241.207 7.62713C241.708 7.86908 242.104 8.20881 242.396 8.64631C242.687 9.08381 242.848 9.59754 242.878 10.1875H240.879C240.823 9.80634 240.674 9.49976 240.432 9.26776C240.193 9.03243 239.88 8.91477 239.492 8.91477C239.164 8.91477 238.877 9.00426 238.632 9.18324C238.39 9.3589 238.201 9.61577 238.065 9.95384C237.929 10.2919 237.862 10.7012 237.862 11.1818C237.862 11.669 237.928 12.0833 238.06 12.4247C238.196 12.7661 238.387 13.0263 238.632 13.2053C238.877 13.3842 239.164 13.4737 239.492 13.4737C239.734 13.4737 239.951 13.424 240.143 13.3246C240.339 13.2251 240.5 13.081 240.626 12.892C240.755 12.6998 240.839 12.4695 240.879 12.201H242.878C242.845 12.7843 242.686 13.2981 242.401 13.7422C242.119 14.183 241.729 14.5277 241.232 14.7763C240.735 15.0249 240.147 15.1491 239.467 15.1491ZM246.352 10.5852V15H244.234V4.81818H246.292V8.71094H246.382C246.554 8.26018 246.832 7.9072 247.217 7.65199C247.601 7.39347 248.084 7.2642 248.664 7.2642C249.194 7.2642 249.656 7.38021 250.051 7.61222C250.448 7.84091 250.757 8.17069 250.975 8.60156C251.197 9.02912 251.307 9.54119 251.303 10.1378V15H249.186V10.5156C249.189 10.045 249.07 9.67874 248.828 9.4169C248.589 9.15507 248.254 9.02415 247.823 9.02415C247.535 9.02415 247.28 9.08546 247.058 9.2081C246.839 9.33073 246.667 9.50971 246.541 9.74503C246.418 9.97704 246.355 10.2571 246.352 10.5852ZM256.45 15.1491C255.665 15.1491 254.989 14.9901 254.422 14.6719C253.858 14.3504 253.424 13.8963 253.119 13.3097C252.814 12.7197 252.662 12.022 252.662 11.2166C252.662 10.4311 252.814 9.74171 253.119 9.14844C253.424 8.55516 253.853 8.0928 254.407 7.76136C254.964 7.42992 255.617 7.2642 256.366 7.2642C256.87 7.2642 257.339 7.34541 257.773 7.50781C258.21 7.6669 258.591 7.9072 258.916 8.22869C259.244 8.55019 259.5 8.95455 259.682 9.44176C259.864 9.92566 259.955 10.4924 259.955 11.142V11.7237H253.507V10.4112H257.962C257.962 10.1063 257.895 9.83617 257.763 9.60085C257.63 9.36553 257.446 9.18158 257.211 9.04901C256.979 8.91312 256.709 8.84517 256.401 8.84517C256.079 8.84517 255.794 8.91974 255.545 9.06889C255.3 9.21473 255.108 9.41193 254.969 9.66051C254.83 9.90578 254.758 10.1792 254.755 10.4808V11.7287C254.755 12.1065 254.825 12.433 254.964 12.7081C255.106 12.9832 255.307 13.1953 255.565 13.3445C255.824 13.4936 256.13 13.5682 256.485 13.5682C256.72 13.5682 256.936 13.535 257.131 13.4688C257.327 13.4025 257.494 13.303 257.634 13.1705C257.773 13.0379 257.879 12.8755 257.952 12.6832L259.911 12.8125C259.811 13.2831 259.607 13.6941 259.299 14.0455C258.994 14.3935 258.6 14.6652 258.116 14.8608C257.635 15.053 257.08 15.1491 256.45 15.1491ZM264.788 15.1491C264.005 15.1491 263.333 14.9834 262.769 14.652C262.209 14.3172 261.778 13.8532 261.477 13.2599C261.178 12.6667 261.029 11.9839 261.029 11.2116C261.029 10.4295 261.18 9.74337 261.482 9.15341C261.786 8.56013 262.219 8.09777 262.779 7.76633C263.339 7.43158 264.005 7.2642 264.778 7.2642C265.444 7.2642 266.027 7.38518 266.528 7.62713C267.028 7.86908 267.424 8.20881 267.716 8.64631C268.008 9.08381 268.168 9.59754 268.198 10.1875H266.2C266.143 9.80634 265.994 9.49976 265.752 9.26776C265.513 9.03243 265.2 8.91477 264.812 8.91477C264.484 8.91477 264.198 9.00426 263.952 9.18324C263.71 9.3589 263.522 9.61577 263.386 9.95384C263.25 10.2919 263.182 10.7012 263.182 11.1818C263.182 11.669 263.248 12.0833 263.381 12.4247C263.517 12.7661 263.707 13.0263 263.952 13.2053C264.198 13.3842 264.484 13.4737 264.812 13.4737C265.054 13.4737 265.272 13.424 265.464 13.3246C265.659 13.2251 265.82 13.081 265.946 12.892C266.075 12.6998 266.16 12.4695 266.2 12.201H268.198C268.165 12.7843 268.006 13.2981 267.721 13.7422C267.439 14.183 267.05 14.5277 266.553 14.7763C266.055 15.0249 265.467 15.1491 264.788 15.1491ZM271.473 12.8026L271.478 10.2621H271.786L274.232 7.36364H276.664L273.377 11.2017H272.875L271.473 12.8026ZM269.554 15V4.81818H271.672V15H269.554ZM274.327 15L272.08 11.674L273.492 10.1776L276.808 15H274.327ZM280.868 15.1491C280.083 15.1491 279.407 14.9901 278.84 14.6719C278.276 14.3504 277.842 13.8963 277.537 13.3097C277.232 12.7197 277.08 12.022 277.08 11.2166C277.08 10.4311 277.232 9.74171 277.537 9.14844C277.842 8.55516 278.271 8.0928 278.825 7.76136C279.382 7.42992 280.035 7.2642 280.784 7.2642C281.288 7.2642 281.757 7.34541 282.191 7.50781C282.628 7.6669 283.009 7.9072 283.334 8.22869C283.662 8.55019 283.917 8.95455 284.1 9.44176C284.282 9.92566 284.373 10.4924 284.373 11.142V11.7237H277.925V10.4112H282.38C282.38 10.1063 282.313 9.83617 282.181 9.60085C282.048 9.36553 281.864 9.18158 281.629 9.04901C281.397 8.91312 281.127 8.84517 280.819 8.84517C280.497 8.84517 280.212 8.91974 279.963 9.06889C279.718 9.21473 279.526 9.41193 279.387 9.66051C279.248 9.90578 279.176 10.1792 279.173 10.4808V11.7287C279.173 12.1065 279.243 12.433 279.382 12.7081C279.524 12.9832 279.725 13.1953 279.983 13.3445C280.242 13.4936 280.548 13.5682 280.903 13.5682C281.138 13.5682 281.354 13.535 281.549 13.4688C281.745 13.4025 281.912 13.303 282.051 13.1705C282.191 13.0379 282.297 12.8755 282.37 12.6832L284.328 12.8125C284.229 13.2831 284.025 13.6941 283.717 14.0455C283.412 14.3935 283.018 14.6652 282.534 14.8608C282.053 15.053 281.498 15.1491 280.868 15.1491ZM288.569 15.1243C287.989 15.1243 287.464 14.9751 286.993 14.6768C286.526 14.3752 286.155 13.9328 285.88 13.3494C285.608 12.7628 285.472 12.0436 285.472 11.1918C285.472 10.3168 285.613 9.58925 285.895 9.00923C286.176 8.4259 286.551 7.99006 287.018 7.7017C287.489 7.41004 288.004 7.2642 288.564 7.2642C288.992 7.2642 289.348 7.33712 289.633 7.48295C289.922 7.62547 290.154 7.80445 290.329 8.01989C290.508 8.23201 290.644 8.44081 290.737 8.64631H290.801V4.81818H292.914V15H290.826V13.777H290.737C290.637 13.9891 290.497 14.1996 290.314 14.4084C290.135 14.6139 289.902 14.7846 289.613 14.9205C289.328 15.0563 288.98 15.1243 288.569 15.1243ZM289.24 13.4389C289.582 13.4389 289.87 13.3461 290.105 13.1605C290.344 12.9716 290.526 12.7081 290.652 12.37C290.782 12.032 290.846 11.6359 290.846 11.1818C290.846 10.7277 290.783 10.3333 290.657 9.99858C290.531 9.66383 290.349 9.4053 290.11 9.22301C289.872 9.04072 289.582 8.94957 289.24 8.94957C288.892 8.94957 288.599 9.04403 288.36 9.23295C288.122 9.42187 287.941 9.68371 287.819 10.0185C287.696 10.3532 287.635 10.741 287.635 11.1818C287.635 11.6259 287.696 12.0187 287.819 12.3601C287.944 12.6982 288.125 12.9633 288.36 13.1555C288.599 13.3445 288.892 13.4389 289.24 13.4389ZM297.896 15V7.36364H300.014V15H297.896ZM298.96 6.37926C298.645 6.37926 298.375 6.27486 298.15 6.06605C297.927 5.85393 297.816 5.60038 297.816 5.3054C297.816 5.01373 297.927 4.76349 298.15 4.55469C298.375 4.34257 298.645 4.23651 298.96 4.23651C299.275 4.23651 299.543 4.34257 299.765 4.55469C299.991 4.76349 300.103 5.01373 300.103 5.3054C300.103 5.60038 299.991 5.85393 299.765 6.06605C299.543 6.27486 299.275 6.37926 298.96 6.37926ZM303.828 10.5852V15H301.71V7.36364H303.729V8.71094H303.818C303.987 8.26681 304.271 7.91548 304.669 7.65696C305.066 7.39512 305.548 7.2642 306.115 7.2642C306.646 7.2642 307.108 7.38021 307.502 7.61222C307.897 7.84422 308.203 8.17566 308.422 8.60653C308.641 9.03409 308.75 9.54451 308.75 10.1378V15H306.632V10.5156C306.636 10.0483 306.516 9.68371 306.274 9.42188C306.032 9.15672 305.699 9.02415 305.275 9.02415C304.99 9.02415 304.738 9.08546 304.519 9.2081C304.304 9.33073 304.135 9.50971 304.012 9.74503C303.893 9.97704 303.832 10.2571 303.828 10.5852Z" fill="#3D3D3F"/>
<path d="M190.885 96V85.8182H193.038V94.2251H197.403V96H190.885ZM202.239 96.1491C201.467 96.1491 200.799 95.9851 200.235 95.657C199.675 95.3255 199.243 94.8648 198.938 94.2749C198.633 93.6816 198.48 92.9938 198.48 92.2116C198.48 91.4228 198.633 90.7334 198.938 90.1435C199.243 89.5502 199.675 89.0895 200.235 88.7614C200.799 88.4299 201.467 88.2642 202.239 88.2642C203.011 88.2642 203.677 88.4299 204.237 88.7614C204.801 89.0895 205.235 89.5502 205.54 90.1435C205.845 90.7334 205.997 91.4228 205.997 92.2116C205.997 92.9938 205.845 93.6816 205.54 94.2749C205.235 94.8648 204.801 95.3255 204.237 95.657C203.677 95.9851 203.011 96.1491 202.239 96.1491ZM202.249 94.5085C202.6 94.5085 202.893 94.4091 203.129 94.2102C203.364 94.008 203.541 93.733 203.661 93.3849C203.783 93.0369 203.845 92.6409 203.845 92.1967C203.845 91.7526 203.783 91.3565 203.661 91.0085C203.541 90.6605 203.364 90.3854 203.129 90.1832C202.893 89.9811 202.6 89.88 202.249 89.88C201.894 89.88 201.596 89.9811 201.354 90.1832C201.115 90.3854 200.935 90.6605 200.812 91.0085C200.693 91.3565 200.633 91.7526 200.633 92.1967C200.633 92.6409 200.693 93.0369 200.812 93.3849C200.935 93.733 201.115 94.008 201.354 94.2102C201.596 94.4091 201.894 94.5085 202.249 94.5085ZM210.188 96.1243C209.608 96.1243 209.083 95.9751 208.612 95.6768C208.145 95.3752 207.774 94.9328 207.499 94.3494C207.227 93.7628 207.091 93.0436 207.091 92.1918C207.091 91.3168 207.232 90.5893 207.514 90.0092C207.795 89.4259 208.17 88.9901 208.637 88.7017C209.108 88.41 209.623 88.2642 210.183 88.2642C210.611 88.2642 210.967 88.3371 211.252 88.483C211.541 88.6255 211.773 88.8045 211.948 89.0199C212.127 89.232 212.263 89.4408 212.356 89.6463H212.421V88.3636H214.534V96H212.445V94.777H212.356C212.257 94.9891 212.116 95.1996 211.933 95.4084C211.754 95.6139 211.521 95.7846 211.232 95.9205C210.947 96.0563 210.599 96.1243 210.188 96.1243ZM210.86 94.4389C211.201 94.4389 211.489 94.3461 211.725 94.1605C211.963 93.9716 212.146 93.7081 212.271 93.37C212.401 93.032 212.465 92.6359 212.465 92.1818C212.465 91.7277 212.402 91.3333 212.276 90.9986C212.151 90.6638 211.968 90.4053 211.73 90.223C211.491 90.0407 211.201 89.9496 210.86 89.9496C210.512 89.9496 210.218 90.044 209.98 90.233C209.741 90.4219 209.56 90.6837 209.438 91.0185C209.315 91.3532 209.254 91.741 209.254 92.1818C209.254 92.6259 209.315 93.0187 209.438 93.3601C209.564 93.6982 209.744 93.9633 209.98 94.1555C210.218 94.3445 210.512 94.4389 210.86 94.4389ZM219.089 96.1243C218.509 96.1243 217.983 95.9751 217.513 95.6768C217.045 95.3752 216.674 94.9328 216.399 94.3494C216.127 93.7628 215.991 93.0436 215.991 92.1918C215.991 91.3168 216.132 90.5893 216.414 90.0092C216.696 89.4259 217.07 88.9901 217.538 88.7017C218.008 88.41 218.524 88.2642 219.084 88.2642C219.511 88.2642 219.868 88.3371 220.153 88.483C220.441 88.6255 220.673 88.8045 220.849 89.0199C221.028 89.232 221.164 89.4408 221.256 89.6463H221.321V85.8182H223.434V96H221.346V94.777H221.256C221.157 94.9891 221.016 95.1996 220.834 95.4084C220.655 95.6139 220.421 95.7846 220.133 95.9205C219.848 96.0563 219.5 96.1243 219.089 96.1243ZM219.76 94.4389C220.101 94.4389 220.39 94.3461 220.625 94.1605C220.864 93.9716 221.046 93.7081 221.172 93.37C221.301 93.032 221.366 92.6359 221.366 92.1818C221.366 91.7277 221.303 91.3333 221.177 90.9986C221.051 90.6638 220.869 90.4053 220.63 90.223C220.391 90.0407 220.101 89.9496 219.76 89.9496C219.412 89.9496 219.119 90.044 218.88 90.233C218.641 90.4219 218.461 90.6837 218.338 91.0185C218.215 91.3532 218.154 91.741 218.154 92.1818C218.154 92.6259 218.215 93.0187 218.338 93.3601C218.464 93.6982 218.645 93.9633 218.88 94.1555C219.119 94.3445 219.412 94.4389 219.76 94.4389ZM228.655 96.1491C227.87 96.1491 227.194 95.9901 226.627 95.6719C226.064 95.3504 225.629 94.8963 225.324 94.3097C225.019 93.7197 224.867 93.022 224.867 92.2166C224.867 91.4311 225.019 90.7417 225.324 90.1484C225.629 89.5552 226.059 89.0928 226.612 88.7614C227.169 88.4299 227.822 88.2642 228.571 88.2642C229.075 88.2642 229.544 88.3454 229.978 88.5078C230.415 88.6669 230.796 88.9072 231.121 89.2287C231.449 89.5502 231.705 89.9545 231.887 90.4418C232.069 90.9257 232.16 91.4924 232.16 92.142V92.7237H225.712V91.4112H230.167C230.167 91.1063 230.1 90.8362 229.968 90.6009C229.835 90.3655 229.651 90.1816 229.416 90.049C229.184 89.9131 228.914 89.8452 228.606 89.8452C228.284 89.8452 227.999 89.9197 227.751 90.0689C227.505 90.2147 227.313 90.4119 227.174 90.6605C227.035 90.9058 226.963 91.1792 226.96 91.4808V92.7287C226.96 93.1065 227.03 93.433 227.169 93.7081C227.311 93.9832 227.512 94.1953 227.77 94.3445C228.029 94.4936 228.336 94.5682 228.69 94.5682C228.925 94.5682 229.141 94.535 229.336 94.4688C229.532 94.4025 229.699 94.303 229.839 94.1705C229.978 94.0379 230.084 93.8755 230.157 93.6832L232.116 93.8125C232.016 94.2831 231.812 94.6941 231.504 95.0455C231.199 95.3935 230.805 95.6652 230.321 95.8608C229.84 96.053 229.285 96.1491 228.655 96.1491ZM236.356 96.1243C235.776 96.1243 235.251 95.9751 234.78 95.6768C234.313 95.3752 233.942 94.9328 233.667 94.3494C233.395 93.7628 233.259 93.0436 233.259 92.1918C233.259 91.3168 233.4 90.5893 233.682 90.0092C233.963 89.4259 234.338 88.9901 234.805 88.7017C235.276 88.41 235.791 88.2642 236.351 88.2642C236.779 88.2642 237.135 88.3371 237.42 88.483C237.709 88.6255 237.941 88.8045 238.116 89.0199C238.295 89.232 238.431 89.4408 238.524 89.6463H238.589V85.8182H240.702V96H238.613V94.777H238.524C238.425 94.9891 238.284 95.1996 238.101 95.4084C237.922 95.6139 237.689 95.7846 237.4 95.9205C237.115 96.0563 236.767 96.1243 236.356 96.1243ZM237.028 94.4389C237.369 94.4389 237.657 94.3461 237.893 94.1605C238.131 93.9716 238.314 93.7081 238.439 93.37C238.569 93.032 238.633 92.6359 238.633 92.1818C238.633 91.7277 238.57 91.3333 238.444 90.9986C238.318 90.6638 238.136 90.4053 237.898 90.223C237.659 90.0407 237.369 89.9496 237.028 89.9496C236.68 89.9496 236.386 90.044 236.148 90.233C235.909 90.4219 235.728 90.6837 235.606 91.0185C235.483 91.3532 235.422 91.741 235.422 92.1818C235.422 92.6259 235.483 93.0187 235.606 93.3601C235.732 93.6982 235.912 93.9633 236.148 94.1555C236.386 94.3445 236.68 94.4389 237.028 94.4389ZM249.133 96.1491C248.361 96.1491 247.693 95.9851 247.13 95.657C246.57 95.3255 246.137 94.8648 245.832 94.2749C245.527 93.6816 245.375 92.9938 245.375 92.2116C245.375 91.4228 245.527 90.7334 245.832 90.1435C246.137 89.5502 246.57 89.0895 247.13 88.7614C247.693 88.4299 248.361 88.2642 249.133 88.2642C249.906 88.2642 250.572 88.4299 251.132 88.7614C251.695 89.0895 252.13 89.5502 252.434 90.1435C252.739 90.7334 252.892 91.4228 252.892 92.2116C252.892 92.9938 252.739 93.6816 252.434 94.2749C252.13 94.8648 251.695 95.3255 251.132 95.657C250.572 95.9851 249.906 96.1491 249.133 96.1491ZM249.143 94.5085C249.495 94.5085 249.788 94.4091 250.023 94.2102C250.259 94.008 250.436 93.733 250.555 93.3849C250.678 93.0369 250.739 92.6409 250.739 92.1967C250.739 91.7526 250.678 91.3565 250.555 91.0085C250.436 90.6605 250.259 90.3854 250.023 90.1832C249.788 89.9811 249.495 89.88 249.143 89.88C248.789 89.88 248.49 89.9811 248.248 90.1832C248.01 90.3854 247.829 90.6605 247.706 91.0085C247.587 91.3565 247.528 91.7526 247.528 92.1967C247.528 92.6409 247.587 93.0369 247.706 93.3849C247.829 93.733 248.01 94.008 248.248 94.2102C248.49 94.4091 248.789 94.5085 249.143 94.5085ZM256.387 91.5852V96H254.269V88.3636H256.287V89.7109H256.377C256.546 89.2668 256.829 88.9155 257.227 88.657C257.625 88.3951 258.107 88.2642 258.674 88.2642C259.204 88.2642 259.666 88.3802 260.061 88.6122C260.455 88.8442 260.762 89.1757 260.981 89.6065C261.199 90.0341 261.309 90.5445 261.309 91.1378V96H259.191V91.5156C259.194 91.0483 259.075 90.6837 258.833 90.4219C258.591 90.1567 258.258 90.0241 257.834 90.0241C257.549 90.0241 257.297 90.0855 257.078 90.2081C256.863 90.3307 256.693 90.5097 256.571 90.745C256.452 90.977 256.39 91.2571 256.387 91.5852ZM267.04 88.3636V89.9545H262.441V88.3636H267.04ZM263.485 86.5341H265.603V93.6534C265.603 93.849 265.633 94.0014 265.692 94.1108C265.752 94.2169 265.835 94.2914 265.941 94.3345C266.05 94.3776 266.176 94.3991 266.319 94.3991C266.418 94.3991 266.518 94.3909 266.617 94.3743C266.717 94.3544 266.793 94.3395 266.846 94.3295L267.179 95.9055C267.073 95.9387 266.924 95.9768 266.732 96.0199C266.539 96.0663 266.306 96.0945 266.031 96.1044C265.52 96.1243 265.073 96.0563 264.688 95.9006C264.307 95.7448 264.01 95.5028 263.798 95.1747C263.586 94.8466 263.482 94.4323 263.485 93.9318V86.5341ZM271.788 96.1491C271.015 96.1491 270.348 95.9851 269.784 95.657C269.224 95.3255 268.791 94.8648 268.487 94.2749C268.182 93.6816 268.029 92.9938 268.029 92.2116C268.029 91.4228 268.182 90.7334 268.487 90.1435C268.791 89.5502 269.224 89.0895 269.784 88.7614C270.348 88.4299 271.015 88.2642 271.788 88.2642C272.56 88.2642 273.226 88.4299 273.786 88.7614C274.35 89.0895 274.784 89.5502 275.089 90.1435C275.394 90.7334 275.546 91.4228 275.546 92.2116C275.546 92.9938 275.394 93.6816 275.089 94.2749C274.784 94.8648 274.35 95.3255 273.786 95.657C273.226 95.9851 272.56 96.1491 271.788 96.1491ZM271.798 94.5085C272.149 94.5085 272.442 94.4091 272.678 94.2102C272.913 94.008 273.09 93.733 273.21 93.3849C273.332 93.0369 273.393 92.6409 273.393 92.1967C273.393 91.7526 273.332 91.3565 273.21 91.0085C273.09 90.6605 272.913 90.3854 272.678 90.1832C272.442 89.9811 272.149 89.88 271.798 89.88C271.443 89.88 271.145 89.9811 270.903 90.1832C270.664 90.3854 270.483 90.6605 270.361 91.0085C270.241 91.3565 270.182 91.7526 270.182 92.1967C270.182 92.6409 270.241 93.0369 270.361 93.3849C270.483 93.733 270.664 94.008 270.903 94.2102C271.145 94.4091 271.443 94.5085 271.798 94.5085ZM283.614 96.1491C282.832 96.1491 282.159 95.9834 281.595 95.652C281.035 95.3172 280.604 94.8532 280.303 94.2599C280.004 93.6667 279.855 92.9839 279.855 92.2116C279.855 91.4295 280.006 90.7434 280.308 90.1534C280.613 89.5601 281.045 89.0978 281.605 88.7663C282.165 88.4316 282.832 88.2642 283.604 88.2642C284.27 88.2642 284.853 88.3852 285.354 88.6271C285.854 88.8691 286.25 89.2088 286.542 89.6463C286.834 90.0838 286.994 90.5975 287.024 91.1875H285.026C284.969 90.8063 284.82 90.4998 284.578 90.2678C284.34 90.0324 284.026 89.9148 283.639 89.9148C283.311 89.9148 283.024 90.0043 282.779 90.1832C282.537 90.3589 282.348 90.6158 282.212 90.9538C282.076 91.2919 282.008 91.7012 282.008 92.1818C282.008 92.669 282.074 93.0833 282.207 93.4247C282.343 93.7661 282.533 94.0263 282.779 94.2053C283.024 94.3842 283.311 94.4737 283.639 94.4737C283.881 94.4737 284.098 94.424 284.29 94.3246C284.485 94.2251 284.646 94.081 284.772 93.892C284.901 93.6998 284.986 93.4695 285.026 93.201H287.024C286.991 93.7843 286.832 94.2981 286.547 94.7422C286.265 95.183 285.876 95.5277 285.379 95.7763C284.882 96.0249 284.293 96.1491 283.614 96.1491ZM288.38 96V88.3636H290.434V89.696H290.513C290.652 89.2221 290.886 88.8641 291.214 88.6222C291.542 88.3769 291.92 88.2543 292.348 88.2543C292.553 88.2543 292.744 88.2791 292.919 88.3288C293.095 88.3786 293.252 88.4465 293.392 88.5327L292.755 90.2827C292.656 90.233 292.547 90.1915 292.427 90.1584C292.311 90.1219 292.18 90.1037 292.034 90.1037C291.749 90.1037 291.491 90.1716 291.259 90.3075C291.027 90.4401 290.843 90.6241 290.707 90.8594C290.571 91.0947 290.502 91.3681 290.498 91.6797V96H288.38ZM296.745 96.1243C296.165 96.1243 295.64 95.9751 295.169 95.6768C294.702 95.3752 294.33 94.9328 294.055 94.3494C293.784 93.7628 293.648 93.0436 293.648 92.1918C293.648 91.3168 293.789 90.5893 294.07 90.0092C294.352 89.4259 294.727 88.9901 295.194 88.7017C295.665 88.41 296.18 88.2642 296.74 88.2642C297.168 88.2642 297.524 88.3371 297.809 88.483C298.097 88.6255 298.329 88.8045 298.505 89.0199C298.684 89.232 298.82 89.4408 298.913 89.6463H298.977V88.3636H301.09V96H299.002V94.777H298.913C298.813 94.9891 298.672 95.1996 298.49 95.4084C298.311 95.6139 298.077 95.7846 297.789 95.9205C297.504 96.0563 297.156 96.1243 296.745 96.1243ZM297.416 94.4389C297.758 94.4389 298.046 94.3461 298.281 94.1605C298.52 93.9716 298.702 93.7081 298.828 93.37C298.957 93.032 299.022 92.6359 299.022 92.1818C299.022 91.7277 298.959 91.3333 298.833 90.9986C298.707 90.6638 298.525 90.4053 298.286 90.223C298.048 90.0407 297.758 89.9496 297.416 89.9496C297.068 89.9496 296.775 90.044 296.536 90.233C296.298 90.4219 296.117 90.6837 295.994 91.0185C295.872 91.3532 295.81 91.741 295.81 92.1818C295.81 92.6259 295.872 93.0187 295.994 93.3601C296.12 93.6982 296.301 93.9633 296.536 94.1555C296.775 94.3445 297.068 94.4389 297.416 94.4389ZM306.938 88.3636V89.9545H302.225V88.3636H306.938ZM303.304 96V87.8118C303.304 87.2583 303.412 86.7992 303.627 86.4347C303.846 86.0701 304.144 85.7966 304.522 85.6143C304.9 85.4321 305.329 85.3409 305.809 85.3409C306.134 85.3409 306.431 85.3658 306.699 85.4155C306.971 85.4652 307.173 85.5099 307.306 85.5497L306.928 87.1406C306.845 87.1141 306.742 87.0893 306.62 87.0661C306.501 87.0429 306.378 87.0312 306.252 87.0312C305.94 87.0312 305.723 87.1042 305.601 87.25C305.478 87.3925 305.417 87.593 305.417 87.8516V96H303.304ZM312.294 88.3636V89.9545H307.695V88.3636H312.294ZM308.739 86.5341H310.857V93.6534C310.857 93.849 310.887 94.0014 310.946 94.1108C311.006 94.2169 311.089 94.2914 311.195 94.3345C311.304 94.3776 311.43 94.3991 311.573 94.3991C311.672 94.3991 311.772 94.3909 311.871 94.3743C311.971 94.3544 312.047 94.3395 312.1 94.3295L312.433 95.9055C312.327 95.9387 312.178 95.9768 311.985 96.0199C311.793 96.0663 311.56 96.0945 311.284 96.1044C310.774 96.1243 310.327 96.0563 309.942 95.9006C309.561 95.7448 309.264 95.5028 309.052 95.1747C308.84 94.8466 308.736 94.4323 308.739 93.9318V86.5341Z" fill="#3D3D3F"/>
</svg>
